+ filenameToUse=/home/horvathandras/vatic/vatic/public/videouploads/DJI_0037_vaskut_20190621_napos_kalaszos_T3.avi
+ filenameNoDot=DJI_0037_vaskut_20190621_napos_kalaszos_T3
+ FullUploadPath=/home/horvathandras/vatic/vatic/public/videouploads/DJI_0037_vaskut_20190621_napos_kalaszos_T3.avi
+ VideoDataDir=/home/horvathandras/vatic/vatic/videos
+ AvailableObjectTypes='PozitívROI NegatívROI Túrás ~Friss ~1-2Hetes ~Régebbi ~Egyéb1 ~Egyéb2 ~Egyéb3 Rágás ~Friss ~1-2Hetes ~Régebbi ~Egyéb1 ~Egyéb2 ~Egyéb3 Törés ~Friss ~1-2Hetes ~Régebbi ~Egyéb1 ~Egyéb2 ~Egyéb3 Taposás ~Friss ~1-2Hetes ~Régebbi ~Egyéb1 ~Egyéb2 ~Egyéb3 EgészségesNövény Egyéb1 Egyéb2 Egyéb3 Egyéb4 Egyéb5 Bizonytalan Művelőút Gktaposás Vetőhiba Széldöntés Jégkár Belvíz Aszály Erózió EgyszikűGyom KétszikűGyom EgyébNövvédelmiPR'
++ dirname /home/horvathandras/vatic/vatic/vatic_publisher.sh
+ cd /home/horvathandras/vatic/vatic
+ touch /home/horvathandras/vatic/vatic/public/videouploads/DJI_0037_vaskut_20190621_napos_kalaszos_T3.avi
+ chmod 744 /home/horvathandras/vatic/vatic/public/videouploads/DJI_0037_vaskut_20190621_napos_kalaszos_T3.avi
+ mkdir /home/horvathandras/vatic/vatic/videos/DJI_0037_vaskut_20190621_napos_kalaszos_T3
+ turkic extract /home/horvathandras/vatic/vatic/public/videouploads/DJI_0037_vaskut_20190621_napos_kalaszos_T3.avi /home/horvathandras/vatic/vatic/videos/DJI_0037_vaskut_20190621_napos_kalaszos_T3 --no-resize
ffmpeg version 2.8.14-0ubuntu0.16.04.1 Copyright (c) 2000-2018 the FFmpeg developers
  built with gcc 5.4.0 (Ubuntu 5.4.0-6ubuntu1~16.04.9) 20160609
  configuration: --prefix=/usr --extra-version=0ubuntu0.16.04.1 --build-suffix=-ffmpeg --toolchain=hardened --libdir=/usr/lib/x86_64-linux-gnu --incdir=/usr/include/x86_64-linux-gnu --cc=cc --cxx=g++ --enable-gpl --enable-shared --disable-stripping --disable-decoder=libopenjpeg --disable-decoder=libschroedinger --enable-avresample --enable-avisynth --enable-gnutls --enable-ladspa --enable-libass --enable-libbluray --enable-libbs2b --enable-libcaca --enable-libcdio --enable-libflite --enable-libfontconfig --enable-libfreetype --enable-libfribidi --enable-libgme --enable-libgsm --enable-libmodplug --enable-libmp3lame --enable-libopenjpeg --enable-libopus --enable-libpulse --enable-librtmp --enable-libschroedinger --enable-libshine --enable-libsnappy --enable-libsoxr --enable-libspeex --enable-libssh --enable-libtheora --enable-libtwolame --enable-libvorbis --enable-libvpx --enable-libwavpack --enable-libwebp --enable-libx265 --enable-libxvid --enable-libzvbi --enable-openal --enable-opengl --enable-x11grab --enable-libdc1394 --enable-libiec61883 --enable-libzmq --enable-frei0r --enable-libx264 --enable-libopencv
  libavutil      54. 31.100 / 54. 31.100
  libavcodec     56. 60.100 / 56. 60.100
  libavformat    56. 40.101 / 56. 40.101
  libavdevice    56.  4.100 / 56.  4.100
  libavfilter     5. 40.101 /  5. 40.101
  libavresample   2.  1.  0 /  2.  1.  0
  libswscale      3.  1.101 /  3.  1.101
  libswresample   1.  2.101 /  1.  2.101
  libpostproc    53.  3.100 / 53.  3.100
Input #0, mov,mp4,m4a,3gp,3g2,mj2, from '/home/horvathandras/vatic/vatic/public/videouploads/DJI_0037_vaskut_20190621_napos_kalaszos_T3.avi':
  Metadata:
    major_brand     : qt  
    minor_version   : 537986816
    compatible_brands: qt  
    creation_time   : 2019-06-21 14:09:08
    location        : +46.089207+18.992953+30.200
    location-{    : +46.089207+18.992953+30.200
    comment         : DE=D-Cinelike, Mode=P, DSW=0001
  Duration: 00:00:10.68, start: 0.000000, bitrate: 101724 kb/s
    Stream #0:0(eng): Video: h264 (High) (avc1 / 0x31637661), yuv420p(tv, bt709), 4096x2160 [SAR 1:1 DAR 256:135], 101462 kb/s, 50 fps, 50 tbr, 50k tbn, 100 tbc (default)
    Metadata:
      creation_time   : 2019-06-21 14:09:08
      handler_name    : DJI.AVC
      encoder         : AVC encoder
    Stream #0:1(eng): Data: none (priv / 0x76697270), 227 kb/s
    Metadata:
      creation_time   : 2019-06-21 14:09:08
      handler_name    : DJI.Meta
Please use -b:a or -b:v, -b is ambiguous
[swscaler @ 0xa1bbe0] deprecated pixel format used, make sure you did set range correctly
Output #0, image2, to '/tmp/pyvision-ffmpeg-679815052/%d.jpg':
  Metadata:
    major_brand     : qt  
    minor_version   : 537986816
    compatible_brands: qt  
    comment         : DE=D-Cinelike, Mode=P, DSW=0001
    location        : +46.089207+18.992953+30.200
    location-{    : +46.089207+18.992953+30.200
    encoder         : Lavf56.40.101
    Stream #0:0(eng): Video: mjpeg, yuvj420p(pc), 4096x2160 [SAR 1:1 DAR 256:135], q=2-31, 10000 kb/s, 50 fps, 50 tbn, 50 tbc (default)
    Metadata:
      creation_time   : 2019-06-21 14:09:08
      handler_name    : DJI.AVC
      encoder         : Lavc56.60.100 mjpeg
Stream mapping:
  Stream #0:0 -> #0:0 (h264 (native) -> mjpeg (native))
Press [q] to stop, [?] for help
frame=    2 fps=0.0 q=14.9 size=N/A time=00:00:00.04 bitrate=N/A    frame=    7 fps=6.0 q=24.8 size=N/A time=00:00:00.14 bitrate=N/A    frame=   12 fps=7.2 q=24.8 size=N/A time=00:00:00.24 bitrate=N/A    frame=   17 fps=7.8 q=24.8 size=N/A time=00:00:00.34 bitrate=N/A    frame=   22 fps=8.2 q=24.8 size=N/A time=00:00:00.44 bitrate=N/A    frame=   28 fps=8.6 q=24.8 size=N/A time=00:00:00.56 bitrate=N/A    frame=   33 fps=8.7 q=24.8 size=N/A time=00:00:00.66 bitrate=N/A    frame=   38 fps=8.9 q=24.8 size=N/A time=00:00:00.76 bitrate=N/A    frame=   43 fps=9.0 q=24.8 size=N/A time=00:00:00.86 bitrate=N/A    frame=   48 fps=9.1 q=24.8 size=N/A time=00:00:00.96 bitrate=N/A    frame=   54 fps=9.2 q=24.8 size=N/A time=00:00:01.08 bitrate=N/A    frame=   59 fps=9.3 q=24.8 size=N/A time=00:00:01.18 bitrate=N/A    frame=   64 fps=9.3 q=24.8 size=N/A time=00:00:01.28 bitrate=N/A    frame=   69 fps=9.3 q=24.8 size=N/A time=00:00:01.38 bitrate=N/A    frame=   74 fps=9.4 q=24.8 size=N/A time=00:00:01.48 bitrate=N/A    frame=   79 fps=9.4 q=24.8 size=N/A time=00:00:01.58 bitrate=N/A    frame=   84 fps=9.5 q=24.8 size=N/A time=00:00:01.68 bitrate=N/A    frame=   89 fps=9.5 q=24.8 size=N/A time=00:00:01.78 bitrate=N/A    frame=   94 fps=9.5 q=24.8 size=N/A time=00:00:01.88 bitrate=N/A    frame=   99 fps=9.5 q=24.8 size=N/A time=00:00:01.98 bitrate=N/A    frame=  104 fps=9.5 q=24.8 size=N/A time=00:00:02.08 bitrate=N/A    frame=  109 fps=9.6 q=24.8 size=N/A time=00:00:02.18 bitrate=N/A    frame=  114 fps=9.6 q=24.8 size=N/A time=00:00:02.28 bitrate=N/A    frame=  119 fps=9.6 q=24.8 size=N/A time=00:00:02.38 bitrate=N/A    frame=  124 fps=9.6 q=24.8 size=N/A time=00:00:02.48 bitrate=N/A    frame=  129 fps=9.6 q=24.8 size=N/A time=00:00:02.58 bitrate=N/A    frame=  134 fps=9.6 q=24.8 size=N/A time=00:00:02.68 bitrate=N/A    frame=  139 fps=9.6 q=24.8 size=N/A time=00:00:02.78 bitrate=N/A    frame=  144 fps=9.7 q=24.8 size=N/A time=00:00:02.88 bitrate=N/A    frame=  149 fps=9.7 q=24.8 size=N/A time=00:00:02.98 bitrate=N/A    frame=  154 fps=9.7 q=24.8 size=N/A time=00:00:03.08 bitrate=N/A    frame=  159 fps=9.7 q=24.8 size=N/A time=00:00:03.18 bitrate=N/A    frame=  164 fps=9.7 q=24.8 size=N/A time=00:00:03.28 bitrate=N/A    frame=  169 fps=9.7 q=24.8 size=N/A time=00:00:03.38 bitrate=N/A    frame=  174 fps=9.7 q=24.8 size=N/A time=00:00:03.48 bitrate=N/A    frame=  179 fps=9.7 q=24.8 size=N/A time=00:00:03.58 bitrate=N/A    frame=  184 fps=9.7 q=24.8 size=N/A time=00:00:03.68 bitrate=N/A    frame=  189 fps=9.7 q=24.8 size=N/A time=00:00:03.78 bitrate=N/A    frame=  194 fps=9.7 q=24.8 size=N/A time=00:00:03.88 bitrate=N/A    frame=  199 fps=9.7 q=24.8 size=N/A time=00:00:03.98 bitrate=N/A    frame=  204 fps=9.7 q=24.8 size=N/A time=00:00:04.08 bitrate=N/A    frame=  209 fps=9.7 q=24.8 size=N/A time=00:00:04.18 bitrate=N/A    frame=  214 fps=9.7 q=24.8 size=N/A time=00:00:04.28 bitrate=N/A    frame=  219 fps=9.7 q=24.8 size=N/A time=00:00:04.38 bitrate=N/A    frame=  224 fps=9.7 q=24.8 size=N/A time=00:00:04.48 bitrate=N/A    frame=  229 fps=9.7 q=24.8 size=N/A time=00:00:04.58 bitrate=N/A    frame=  234 fps=9.8 q=24.8 size=N/A time=00:00:04.68 bitrate=N/A    frame=  239 fps=9.8 q=24.8 size=N/A time=00:00:04.78 bitrate=N/A    frame=  244 fps=9.8 q=24.8 size=N/A time=00:00:04.88 bitrate=N/A    frame=  249 fps=9.8 q=24.8 size=N/A time=00:00:04.98 bitrate=N/A    frame=  254 fps=9.8 q=24.8 size=N/A time=00:00:05.08 bitrate=N/A    frame=  259 fps=9.8 q=24.8 size=N/A time=00:00:05.18 bitrate=N/A    frame=  264 fps=9.8 q=24.8 size=N/A time=00:00:05.28 bitrate=N/A    frame=  269 fps=9.8 q=24.8 size=N/A time=00:00:05.38 bitrate=N/A    frame=  274 fps=9.8 q=24.8 size=N/A time=00:00:05.48 bitrate=N/A    frame=  279 fps=9.8 q=24.8 size=N/A time=00:00:05.58 bitrate=N/A    frame=  284 fps=9.8 q=24.8 size=N/A time=00:00:05.68 bitrate=N/A    frame=  289 fps=9.8 q=24.8 size=N/A time=00:00:05.78 bitrate=N/A    frame=  294 fps=9.8 q=24.8 size=N/A time=00:00:05.88 bitrate=N/A    frame=  299 fps=9.8 q=24.8 size=N/A time=00:00:05.98 bitrate=N/A    frame=  304 fps=9.8 q=24.8 size=N/A time=00:00:06.08 bitrate=N/A    frame=  309 fps=9.8 q=24.8 size=N/A time=00:00:06.18 bitrate=N/A    frame=  314 fps=9.8 q=24.8 size=N/A time=00:00:06.28 bitrate=N/A    frame=  319 fps=9.8 q=24.8 size=N/A time=00:00:06.38 bitrate=N/A    frame=  324 fps=9.8 q=24.8 size=N/A time=00:00:06.48 bitrate=N/A    frame=  329 fps=9.8 q=24.8 size=N/A time=00:00:06.58 bitrate=N/A    frame=  334 fps=9.8 q=24.8 size=N/A time=00:00:06.68 bitrate=N/A    frame=  339 fps=9.8 q=24.8 size=N/A time=00:00:06.78 bitrate=N/A    frame=  344 fps=9.8 q=24.8 size=N/A time=00:00:06.88 bitrate=N/A    frame=  349 fps=9.8 q=24.8 size=N/A time=00:00:06.98 bitrate=N/A    frame=  354 fps=9.8 q=24.8 size=N/A time=00:00:07.08 bitrate=N/A    frame=  359 fps=9.8 q=24.8 size=N/A time=00:00:07.18 bitrate=N/A    frame=  364 fps=9.8 q=24.8 size=N/A time=00:00:07.28 bitrate=N/A    frame=  369 fps=9.8 q=24.8 size=N/A time=00:00:07.38 bitrate=N/A    frame=  374 fps=9.8 q=24.8 size=N/A time=00:00:07.48 bitrate=N/A    frame=  379 fps=9.8 q=24.8 size=N/A time=00:00:07.58 bitrate=N/A    frame=  384 fps=9.8 q=24.8 size=N/A time=00:00:07.68 bitrate=N/A    frame=  389 fps=9.8 q=24.8 size=N/A time=00:00:07.78 bitrate=N/A    frame=  394 fps=9.8 q=24.8 size=N/A time=00:00:07.88 bitrate=N/A    frame=  399 fps=9.8 q=24.8 size=N/A time=00:00:07.98 bitrate=N/A    frame=  404 fps=9.8 q=24.8 size=N/A time=00:00:08.08 bitrate=N/A    frame=  409 fps=9.8 q=24.8 size=N/A time=00:00:08.18 bitrate=N/A    frame=  414 fps=9.8 q=24.8 size=N/A time=00:00:08.28 bitrate=N/A    frame=  419 fps=9.8 q=24.8 size=N/A time=00:00:08.38 bitrate=N/A    frame=  424 fps=9.8 q=24.8 size=N/A time=00:00:08.48 bitrate=N/A    frame=  429 fps=9.8 q=24.8 size=N/A time=00:00:08.58 bitrate=N/A    frame=  434 fps=9.8 q=24.8 size=N/A time=00:00:08.68 bitrate=N/A    frame=  439 fps=9.8 q=24.8 size=N/A time=00:00:08.78 bitrate=N/A    frame=  444 fps=9.8 q=24.8 size=N/A time=00:00:08.88 bitrate=N/A    frame=  449 fps=9.8 q=24.8 size=N/A time=00:00:08.98 bitrate=N/A    frame=  454 fps=9.8 q=24.8 size=N/A time=00:00:09.08 bitrate=N/A    frame=  459 fps=9.8 q=24.8 size=N/A time=00:00:09.18 bitrate=N/A    frame=  464 fps=9.8 q=24.8 size=N/A time=00:00:09.28 bitrate=N/A    frame=  469 fps=9.8 q=24.8 size=N/A time=00:00:09.38 bitrate=N/A    frame=  474 fps=9.8 q=24.8 size=N/A time=00:00:09.48 bitrate=N/A    frame=  479 fps=9.8 q=24.8 size=N/A time=00:00:09.58 bitrate=N/A    frame=  484 fps=9.8 q=24.8 size=N/A time=00:00:09.68 bitrate=N/A    frame=  489 fps=9.8 q=24.8 size=N/A time=00:00:09.78 bitrate=N/A    frame=  494 fps=9.8 q=24.8 size=N/A time=00:00:09.88 bitrate=N/A    frame=  499 fps=9.8 q=24.8 size=N/A time=00:00:09.98 bitrate=N/A    frame=  504 fps=9.8 q=24.8 size=N/A time=00:00:10.08 bitrate=N/A    frame=  509 fps=9.8 q=24.8 size=N/A time=00:00:10.18 bitrate=N/A    frame=  514 fps=9.8 q=24.8 size=N/A time=00:00:10.28 bitrate=N/A    frame=  519 fps=9.8 q=24.8 size=N/A time=00:00:10.38 bitrate=N/A    frame=  524 fps=9.8 q=24.8 size=N/A time=00:00:10.48 bitrate=N/A    frame=  529 fps=9.8 q=24.8 size=N/A time=00:00:10.58 bitrate=N/A    frame=  534 fps=9.8 q=24.8 size=N/A time=00:00:10.68 bitrate=N/A    frame=  534 fps=9.8 q=24.8 Lsize=N/A time=00:00:10.68 bitrate=N/A    
video:285335kB audio:0kB subtitle:0kB other streams:0kB global headers:0kB muxing overhead: unknown
+ turkic load DJI_0037_vaskut_20190621_napos_kalaszos_T3 /home/horvathandras/vatic/vatic/videos/DJI_0037_vaskut_20190621_napos_kalaszos_T3 $'Pozit\303\255vROI' $'Negat\303\255vROI' $'T\303\272r\303\241s' '~Friss' '~1-2Hetes' '~Régebbi' '~Egyéb1' '~Egyéb2' '~Egyéb3' $'R\303\241g\303\241s' '~Friss' '~1-2Hetes' '~Régebbi' '~Egyéb1' '~Egyéb2' '~Egyéb3' $'T\303\266r\303\251s' '~Friss' '~1-2Hetes' '~Régebbi' '~Egyéb1' '~Egyéb2' '~Egyéb3' $'Tapos\303\241s' '~Friss' '~1-2Hetes' '~Régebbi' '~Egyéb1' '~Egyéb2' '~Egyéb3' $'Eg\303\251szs\303\251gesN\303\266v\303\251ny' $'Egy\303\251b1' $'Egy\303\251b2' $'Egy\303\251b3' $'Egy\303\251b4' $'Egy\303\251b5' Bizonytalan $'M\305\261vel\305\221\303\272t' $'Gktapos\303\241s' $'Vet\305\221hiba' $'Sz\303\251ld\303\266nt\303\251s' $'J\303\251gk\303\241r' $'Belv\303\255z' $'Asz\303\241ly' $'Er\303\263zi\303\263' $'Egyszik\305\261Gyom' $'K\303\251tszik\305\261Gyom' $'Egy\303\251bN\303\266vv\303\251delmiPR' --offline --title '$filenameNoDot Video' --length 1000 --description 'vatic annotation'
+ turkic publish --offline
+ mkdir /home/horvathandras/vatic/vatic/public/videothumbnails/DJI_0037_vaskut_20190621_napos_kalaszos_T3
+ cp /home/horvathandras/vatic/vatic/videos/DJI_0037_vaskut_20190621_napos_kalaszos_T3/0/0/31.jpg /home/horvathandras/vatic/vatic/public/videothumbnails/DJI_0037_vaskut_20190621_napos_kalaszos_T3/thumb.jpg
